<?xml version="1.0" encoding="utf-8"?>
<svg class="svg-icon" style="width: 1em; height: 1em;vertical-align: middle;fill: currentColor;overflow: hidden;" viewBox="0 0 1024 1024" version="1.1" xmlns="http://www.w3.org/2000/svg">
  <path d="M 97.093 226.863 L 453.584 20.972 C 482.896 4.041 519.016 4.041 548.328 20.972 L 904.853 226.863 C 934.163 243.79 952.22 275.065 952.225 308.912 L 952.225 720.546 C 952.226 754.395 934.168 785.672 904.853 802.595 L 548.328 1008.496 C 519.013 1025.416 482.898 1025.416 453.584 1008.496 L 97.093 802.595 C 67.751 785.69 49.665 754.408 49.653 720.546 L 49.653 308.855 C 49.692 275.014 67.775 243.763 97.093 226.863 Z M 503.249 930.333 L 861.975 720.557 L 859.716 304.981 L 498.708 99.125 L 139.936 308.855 L 142.195 724.431 L 498.708 930.276 C 499.393 930.678 500.172 930.893 500.967 930.897 L 503.249 930.333 Z" style="fill: rgb(66, 71, 25);"/>
  <path d="M 478.388 456.552 L 336.959 374.899 C 306.88 357.527 306.88 314.108 336.959 296.735 L 478.388 215.082 C 492.348 207.017 509.552 207.017 523.513 215.082 L 664.94 296.735 C 695.031 314.108 695.031 357.527 664.94 374.899 L 523.513 456.552 C 509.547 464.601 492.352 464.601 478.388 456.552 Z" style="fill: rgb(66, 71, 25);"/>
  <path d="M 500.955 365.355 L 552.123 335.829 L 500.955 306.28 L 449.787 335.829 L 500.955 365.355 Z M 461.93 563.326 L 461.93 726.622 C 461.93 761.367 424.317 783.099 394.238 765.704 L 252.753 684.051 C 238.782 676 230.169 661.105 230.162 644.98 L 230.162 481.673 C 230.162 446.928 267.776 425.197 297.855 442.592 L 439.339 524.244 C 453.315 532.296 461.928 547.198 461.93 563.326 Z" style="fill: rgb(66, 71, 25);"/>
  <path d="M 371.613 589.385 L 320.457 559.837 L 320.446 618.923 L 371.625 648.448 L 371.613 589.385 Z M 562.595 524.244 L 704.023 442.602 C 734.113 425.231 771.715 446.94 771.715 481.684 L 771.715 644.98 C 771.714 661.106 763.099 676.003 749.125 684.051 L 607.708 765.704 C 577.617 783.076 540.015 761.367 540.015 726.622 L 540.015 563.326 C 540.012 547.199 548.621 532.297 562.595 524.244 Z" style="fill: rgb(66, 71, 25);"/>
  <path d="M 630.298 589.385 L 630.286 648.448 L 681.455 618.923 L 681.455 559.837 L 630.298 589.385 Z" style="fill: rgb(66, 71, 25);"/>
</svg>