<?xml version="1.0" encoding="utf-8"?>
<svg width="70px" height="70px" viewBox="-1.26 0 70 70" xmlns="http://www.w3.org/2000/svg">
  <path d="M 6.634 66.437 C 3.611 65.645 1.175 63.257 0.302 60.227 L 0 59.181 L 0 33.414 C 0 12.26 0.032 7.519 0.176 6.928 C 0.273 6.533 0.619 5.65 0.944 4.966 C 1.451 3.904 1.7 3.562 2.665 2.61 C 3.956 1.337 5.104 0.681 6.79 0.257 C 7.803 0.002 8.276 -0.004 29.352 0.001 L 50.879 0.005 L 57.59 6.639 L 64.3 13.272 L 64.26 36.357 L 64.22 59.442 L 63.911 60.358 C 62.846 63.513 60.588 65.663 57.515 66.449 C 56.555 66.694 55.824 66.701 32.057 66.694 C 8.41 66.688 7.554 66.679 6.634 66.438 L 6.634 66.437 Z M 56.872 60.9 C 57.742 60.473 58.431 59.646 58.654 58.763 C 58.748 58.389 58.792 51.596 58.792 37.347 L 58.792 16.479 L 53.463 16.445 L 48.133 16.411 L 48.099 10.95 L 48.064 5.489 L 28.087 5.49 L 8.11 5.491 L 7.456 5.796 C 7.096 5.964 6.584 6.343 6.318 6.638 C 5.363 7.697 5.428 5.742 5.428 33.351 C 5.428 60.15 5.394 58.794 6.105 59.847 C 6.504 60.436 7.253 60.949 8.017 61.156 C 8.507 61.288 13.49 61.317 32.372 61.297 L 56.111 61.273 L 56.872 60.899 L 56.872 60.9 Z M 24.872 50.869 C 22.896 50.537 21.199 49.646 20.481 48.563 C 19.499 47.08 19.295 45.916 19.293 41.785 C 19.292 40.059 19.234 38.3 19.165 37.877 C 18.915 36.352 18.146 35.48 16.918 35.331 L 16.219 35.245 L 16.219 33.349 L 16.219 31.452 L 16.907 31.368 C 17.824 31.256 18.442 30.775 18.879 29.831 C 19.214 29.107 19.22 29.049 19.303 25.043 C 19.395 20.599 19.467 20.111 20.236 18.668 C 21.173 16.909 23.21 15.945 26.433 15.733 L 27.663 15.652 L 27.663 17.562 L 27.663 19.473 L 27.173 19.555 C 25.889 19.771 25.335 20.113 24.885 20.968 C 24.619 21.475 24.593 21.756 24.512 25.109 C 24.421 28.903 24.295 29.841 23.716 31.087 C 23.406 31.752 22.228 33.009 21.782 33.151 C 21.403 33.272 21.453 33.363 22.144 33.817 C 23.992 35.027 24.514 36.872 24.521 42.218 C 24.525 45.021 24.628 45.654 25.197 46.344 C 25.597 46.83 26.523 47.213 27.295 47.213 L 27.663 47.213 L 27.663 49.11 L 27.663 51.006 L 26.584 50.991 C 25.991 50.982 25.22 50.928 24.872 50.869 L 24.872 50.869 Z M 34.465 49.11 L 34.465 47.213 L 34.833 47.213 C 35.443 47.213 36.489 46.845 36.779 46.529 C 37.494 45.747 37.523 45.574 37.615 41.589 C 37.705 37.671 37.802 36.9 38.354 35.722 C 38.782 34.809 39.327 34.2 40.129 33.742 L 40.778 33.372 L 40.27 33.11 C 39.188 32.552 38.365 31.351 37.923 29.687 C 37.747 29.023 37.679 28.032 37.617 25.174 C 37.54 21.582 37.532 21.501 37.211 20.928 C 36.796 20.187 36.211 19.794 35.236 19.602 L 34.465 19.45 L 34.465 17.551 L 34.465 15.652 L 35.748 15.736 C 37.29 15.837 38.741 16.19 39.783 16.715 C 40.671 17.164 41.698 18.199 42.055 19.007 C 42.661 20.376 42.733 20.955 42.825 25.174 C 42.9 28.624 42.948 29.307 43.143 29.752 C 43.59 30.771 44.434 31.387 45.385 31.387 L 45.851 31.387 L 45.815 33.315 L 45.778 35.242 L 45.173 35.329 C 44.41 35.438 44.149 35.579 43.644 36.154 C 42.938 36.958 42.836 37.594 42.835 41.187 C 42.834 45.993 42.51 47.593 41.266 48.954 C 40.881 49.375 40.303 49.816 39.802 50.07 C 38.792 50.583 36.852 51.002 35.478 51.004 L 34.465 51.006 L 34.465 49.11 L 34.465 49.11 Z" fill="#00bcf2" style=""/>
</svg>