<?xml version="1.0" encoding="UTF-8" standalone="no" ?>
<!DOCTYPE svg PUBLIC "-//W3C//DTD SVG 1.1//EN" "http://www.w3.org/Graphics/SVG/1.1/DTD/svg11.dtd">
<svg xmlns="http://www.w3.org/2000/svg" xmlns:xlink="http://www.w3.org/1999/xlink" version="1.1" width="490" height="490" viewBox="0 0 490 490" xml:space="preserve">
<desc>Created with Fabric.js 4.6.0</desc>
<defs>
</defs>
<g transform="matrix(1 0 0 1 243.62 245)" id="oJLI5ywuLdYWsvl0DxBdT"  >
<g style="" vector-effect="non-scaling-stroke"   >
		<g transform="matrix(1 0 0 1 0 0)" id="7D-_6CGoofZ7qv3TChAbz"  >
<path style="stroke: none; stroke-width: 1.11; stroke-dasharray: none; stroke-linecap: butt; stroke-dashoffset: 0; stroke-linejoin: miter; stroke-miterlimit: 4; fill: rgb(255,255,255); fill-rule: nonzero; opacity: 1;" vector-effect="non-scaling-stroke"  transform=" translate(-242.44, -240.31)" d="M 0 240.31445 C 0 107.59243999999998 108.5449 0 242.44183 0 C 376.33876 0 484.88366 107.59244 484.88366 240.31445 C 484.88366 373.03646000000003 376.33876000000004 480.6289 242.44183 480.6289 C 108.54490000000001 480.6289 0 373.03646 0 240.31445 z" stroke-linecap="round" />
</g>
		<g transform="matrix(0.63 0 0 0.66 2.2 38.12)" id="y9tvysC-DN2ixSjvja2jY"  >
<path style="stroke: rgb(255,255,255); stroke-opacity: 0; stroke-width: 0; stroke-dasharray: none; stroke-linecap: butt; stroke-dashoffset: 0; stroke-linejoin: miter; stroke-miterlimit: 4; fill: rgb(80,80,80); fill-rule: evenodd; opacity: 1;" vector-effect="non-scaling-stroke"  transform=" translate(-245, -291)" d="M 347 234 C 331 234 318 247 318 262 C 318 267 319 271 321 275 C 321 275 297 296 297 296 C 292 293 287 291 281 291 C 275 291 269 293 264 297 C 264 297 233 274 233 274 C 235 270 236 266 236 262 C 236 247 223 234 207 234 C 191 234 178 247 178 262 C 178 267 179 271 181 275 C 181 275 159 295 159 295 C 154 292 149 291 144 291 C 128 291 115 304 115 319 C 115 335 128 348 144 348 C 159 348 172 335 172 319 C 172 315 171 310 169 307 C 169 307 191 286 191 286 C 196 289 201 291 207 291 C 213 291 219 289 224 286 C 224 286 255 309 255 309 C 253 312 252 316 252 319 C 252 335 265 348 281 348 C 297 348 310 335 310 319 C 310 315 308 311 307 307 C 307 307 331 286 331 286 C 335 289 341 291 347 291 C 362 291 375 278 375 262 C 375 247 362 234 347 234 C 347 234 347 234 347 234" stroke-linecap="round" />
</g>
		<g transform="matrix(0.63 0 0 0.66 2.2 7.96)" id="lsT8NDEBj2OwrkSpAikqd"  >
<path style="stroke: rgb(255,255,255); stroke-opacity: 0; stroke-width: 0; stroke-dasharray: none; stroke-linecap: butt; stroke-dashoffset: 0; stroke-linejoin: miter; stroke-miterlimit: 4; fill: rgb(80,80,80); fill-rule: evenodd; opacity: 1;" vector-effect="non-scaling-stroke"  transform=" translate(-245, -245)" d="M 31 92 C 31 92 459 92 459 92 C 459 92 459 398 459 398 C 459 398 31 398 31 398 C 31 398 31 92 31 92 M 15 429 C 15 429 475 429 475 429 C 483 429 490 422 490 414 C 490 414 490 76 490 76 C 490 68 483 61 475 61 C 475 61 15 61 15 61 C 7 61 0 68 0 76 C 0 76 0 414 0 414 C 0 422 7 429 15 429 C 15 429 15 429 15 429" stroke-linecap="round" />
</g>
		<g transform="matrix(0.63 0 0 0.66 -103.57 -72.04)" id="pRNyi62-jaZIpxqP4V4ID"  >
<path style="stroke: rgb(0,0,0); stroke-width: 0; stroke-dasharray: none; stroke-linecap: butt; stroke-dashoffset: 0; stroke-linejoin: miter; stroke-miterlimit: 4; fill: rgb(80,80,80); fill-rule: nonzero; opacity: 1;" vector-effect="non-scaling-stroke"  transform=" translate(-15, -15)" d="M 0 15 C 0 6.71573 6.71573 0 15 0 C 23.28427 0 30 6.71573 30 15 C 30 23.28427 23.28427 30 15 30 C 6.71573 30 0 23.28427 0 15 Z" stroke-linecap="round" />
</g>
		<g transform="matrix(0.63 0 0 0.66 -74.61 -72.04)" id="MbY1DQh1z_YSLehCGMmND"  >
<path style="stroke: rgb(0,0,0); stroke-width: 0; stroke-dasharray: none; stroke-linecap: butt; stroke-dashoffset: 0; stroke-linejoin: miter; stroke-miterlimit: 4; fill: rgb(80,80,80); fill-rule: nonzero; opacity: 1;" vector-effect="non-scaling-stroke"  transform=" translate(-15, -15)" d="M 0 15 C 0 6.71573 6.71573 0 15 0 C 23.28427 0 30 6.71573 30 15 C 30 23.28427 23.28427 30 15 30 C 6.71573 30 0 23.28427 0 15 Z" stroke-linecap="round" />
</g>
		<g transform="matrix(0.63 0 0 0.66 -45.65 -72.04)" id="pCbMWnBCg5cQKJZoKqRIZ"  >
<path style="stroke: rgb(0,0,0); stroke-width: 0; stroke-dasharray: none; stroke-linecap: butt; stroke-dashoffset: 0; stroke-linejoin: miter; stroke-miterlimit: 4; fill: rgb(80,80,80); fill-rule: nonzero; opacity: 1;" vector-effect="non-scaling-stroke"  transform=" translate(-15, -15)" d="M 0 15 C 0 6.71573 6.71573 0 15 0 C 23.28427 0 30 6.71573 30 15 C 30 23.28427 23.28427 30 15 30 C 6.71573 30 0 23.28427 0 15 Z" stroke-linecap="round" />
</g>
		<g transform="matrix(0.63 0 0 0.66 2.2 -42.2)" id="6KXlpjItLtFHssi_jgNao"  >
<path style="stroke: rgb(0,0,0); stroke-width: 0; stroke-dasharray: none; stroke-linecap: butt; stroke-dashoffset: 0; stroke-linejoin: miter; stroke-miterlimit: 4; fill: rgb(80,80,80); fill-rule: nonzero; opacity: 1;" vector-effect="non-scaling-stroke"  transform=" translate(-184, -15.5)" d="M 0 31 L 0 0 L 368 0 L 368 31 z" stroke-linecap="round" />
</g>
</g>
</g>
</svg>