<?xml version="1.0" encoding="utf-8"?>
<svg style="enable-background:new 0 0 512 512;" viewBox="0 0 512 512" y="0px" x="0px" id="Layer_1" version="1.1" xmlns="http://www.w3.org/2000/svg">
  <g transform="matrix(1.6291055,0,0,1.6291055,-160.59399,-166.56822)" id="g896">
    <path style="fill:#ffc61b" d="m 396.569,355.556 h -281.14 c -8.768,0 -15.874,-7.108 -15.874,-15.874 V 172.32 c 0,-8.768 7.108,-15.875 15.874,-15.875 h 281.14 c 8.768,0 15.874,7.108 15.874,15.875 v 167.362 c 0.001,8.766 -7.106,15.874 -15.874,15.874 z" id="path6"/>
    <path style="fill:#d48b07" d="M 396.569,156.444 H 256 v 199.111 h 140.569 c 8.768,0 15.874,-7.108 15.874,-15.874 V 172.318 c 0.001,-8.766 -7.106,-15.874 -15.874,-15.874 z" id="path8"/>
    <path style="fill:#ffedb5" d="m 221.522,327.111 h -101.71 c -3.332,0 -6.034,-2.701 -6.034,-6.034 V 190.923 c 0,-3.332 2.701,-6.034 6.034,-6.034 h 101.71 c 3.332,0 6.034,2.701 6.034,6.034 v 130.155 c 0,3.332 -2.702,6.033 -6.034,6.033 z" id="path10"/>
    <g id="g16">
      <circle style="fill:#366695" cx="170.66701" cy="233.589" r="24.135" id="circle12"/>
      <path style="fill:#366695" d="m 129.293,302.545 c 0,-22.85 18.523,-41.374 41.374,-41.374 22.851,0 41.374,18.523 41.374,41.374 z" id="path14"/>
    </g>
    <g id="g24">
      <rect x="269.79099" y="224.108" style="fill:#263a7a" width="113.778" height="6.8959999" id="rect18"/>
      <rect x="269.79099" y="252.552" style="fill:#263a7a" width="113.778" height="6.8959999" id="rect20"/>
      <rect x="269.79099" y="280.99701" style="fill:#263a7a" width="113.778" height="6.8959999" id="rect22"/>
    </g>
  </g>
  <g id="g26"/>
  <g id="g28"/>
  <g id="g30"/>
  <g id="g32"/>
  <g id="g34"/>
  <g id="g36"/>
  <g id="g38"/>
  <g id="g40"/>
  <g id="g42"/>
  <g id="g44"/>
  <g id="g46"/>
  <g id="g48"/>
  <g id="g50"/>
  <g id="g52"/>
  <g id="g54"/>
</svg>