<?xml version="1.0" encoding="utf-8"?>
<svg style="enable-background:new 0 0 511.999 511.999;" viewBox="0 0 511.999 511.999" y="0px" x="0px" id="Layer_1" version="1.1" xmlns="http://www.w3.org/2000/svg">
  <g transform="matrix(1.0434445,0,0,1.0434445,-2.1512738,-22.285083)" id="g915">
    <path id="path6-4" d="m 153.58216,205.59086 c 3.55839,-8.59965 13.50554,-12.7222 22.10378,-9.16523 l 94.20091,38.97546 c 8.59825,3.55696 12.72221,13.50412 9.16453,22.10307 L 176.20114,506.07744 c -3.55696,8.59825 -10.57304,9.22179 -15.58905,1.38174 l -26.38294,-41.22577 c -5.01461,-7.83862 -16.55431,-12.61326 -25.64324,-10.61085 l -47.79909,10.53347 c -9.0861,2.00243 -13.61257,-3.39436 -10.05346,-11.99471 z" style="fill:#ff4513;fill-opacity:1"/>
    <path id="path8-7" d="m 244.99887,225.10384 -104.09031,251.56899 -6.68013,-10.43872 c -5.0146,-7.83862 -16.55431,-12.61326 -25.64324,-10.61085 l -10.88362,2.39871 103.81644,-250.90885 z" style="fill:#ff9e13;fill-opacity:1"/>
    <path style="fill:#ff4513;fill-opacity:1" d="m 242.93,257.629 c -3.641,-8.565 0.389,-18.55 8.952,-22.191 l 93.819,-39.886 c 8.563,-3.641 18.549,0.388 22.19,8.952 l 105.247,247.568 c 3.641,8.563 -0.831,14.005 -9.939,12.089 l -47.898,-10.07 c -9.106,-1.916 -20.599,2.97 -25.54,10.857 l -25.983,41.48 c -4.939,7.885 -11.961,7.332 -15.602,-1.234 z" id="path6"/>
    <path style="fill:#ff9e13;fill-opacity:1" d="m 320.914,206.09 106.515,250.552 -12.128,-2.55 c -9.106,-1.916 -20.599,2.97 -25.54,10.857 l -5.916,9.445 L 277.609,224.5 Z" id="path8"/>
    <circle style="fill:#82a8e6;fill-opacity:1;stroke-width:0.864735" cx="258.12662" cy="191.05963" r="163.37437" id="circle10"/>
    <circle style="fill:#0055b8" cx="255.99699" cy="188.92999" r="97.944" id="circle14"/>
  </g>
  <g id="g16"/>
  <g id="g18"/>
  <g id="g20"/>
  <g id="g22"/>
  <g id="g24"/>
  <g id="g26"/>
  <g id="g28"/>
  <g id="g30"/>
  <g id="g32"/>
  <g id="g34"/>
  <g id="g36"/>
  <g id="g38"/>
  <g id="g40"/>
  <g id="g42"/>
  <g id="g44"/>
</svg>