<?xml version="1.0" encoding="iso-8859-1"?>
<!-- Generator: Adobe Illustrator 19.0.0, SVG Export Plug-In . SVG Version: 6.00 Build 0)  -->
<svg version="1.1" id="Layer_1" xmlns="http://www.w3.org/2000/svg" xmlns:xlink="http://www.w3.org/1999/xlink" x="0px" y="0px"
	 viewBox="0 0 512 512" style="enable-background:new 0 0 512 512;" xml:space="preserve">
<g>
	<rect x="248" y="293.408" style="fill:#333333;" width="16" height="206.416"/>
	<rect x="214.672" y="496" style="fill:#333333;" width="82.672" height="16"/>
	<rect x="67.168" y="293.408" style="fill:#333333;" width="16" height="206.416"/>
	<rect x="33.84" y="496" style="fill:#333333;" width="82.672" height="16"/>
</g>
<g>
	<rect x="4.304" y="382" style="fill:#0BA4E0;" width="141.728" height="93.52"/>
	<rect x="185.136" y="382" style="fill:#0BA4E0;" width="141.728" height="93.52"/>
</g>
<g>
	<rect x="427.984" y="293.408" style="fill:#333333;" width="16" height="206.416"/>
	<rect x="394.656" y="496" style="fill:#333333;" width="82.672" height="16"/>
</g>
<rect x="365.12" y="382" style="fill:#0BA4E0;" width="141.728" height="93.52"/>
<path style="fill:#E8E8E8;" d="M188.992,0C123.28,0,70,53.28,70,119.008c0,5.744,0.544,11.36,1.328,16.88
	C31.424,140.288,0,173.968,0,215.008v16c0,44,36,80,80,80h352c44,0,80-36,80-80v-16c0-44-36-80-80-80h-30.608
	c0.192-2,0.608-3.952,0.608-6C402,93.104,372.896,64,336.992,64c-13.872,0-26.656,4.416-37.2,11.808
	C282.496,31.472,239.472,0,188.992,0L188.992,0z"/>
<g>
</g>
<g>
</g>
<g>
</g>
<g>
</g>
<g>
</g>
<g>
</g>
<g>
</g>
<g>
</g>
<g>
</g>
<g>
</g>
<g>
</g>
<g>
</g>
<g>
</g>
<g>
</g>
<g>
</g>
</svg>
