<svg class="svg-icon" style="width: 1em; height: 1em;vertical-align: middle;fill: currentColor;overflow: hidden;" viewBox="0 0 1024 1024" version="1.1" xmlns="http://www.w3.org/2000/svg"><path d="M513 513.2m-415 0a415 415 0 1 0 830 0 415 415 0 1 0-830 0Z" fill="#24222D" /><path d="M381.1 406.3h-5.5c-4.7 0-8.5 4.3-8.5 9.5v194.8c0 5.3 3.8 9.5 8.5 9.5h5.5c4.7 0 8.5-4.3 8.5-9.5V415.8c0-5.2-3.8-9.5-8.5-9.5z m119.7 0h-5.5c-4.7 0-8.5 4.3-8.5 9.5v194.8c0 5.3 3.8 9.5 8.5 9.5h5.5c4.7 0 8.5-4.3 8.5-9.5V415.8c0-5.2-3.8-9.5-8.5-9.5zM411 417h-5.5c-4.7 0-8.5 4.3-8.5 9.5v173.3c0 5.3 3.7 9.5 8.5 9.5h5.5c4.7 0 8.5-4.3 8.5-9.5V426.6c0-5.3-3.8-9.6-8.5-9.6z m59.8 43h-5.5c-4.7 0-8.5 4.3-8.5 9.5v87.4c0 5.3 3.8 9.5 8.5 9.5h5.5c4.7 0 8.5-4.3 8.5-9.5v-87.4c0-5.3-3.8-9.5-8.5-9.5z m-29.9-75.2h-5.5c-4.7 0-8.5 4.3-8.5 9.5V632c0 5.3 3.8 9.6 8.5 9.6h5.5c4.7 0 8.5-4.3 8.5-9.6V394.4c0-5.3-3.8-9.6-8.5-9.6z m-119.6 43h-5.5c-4.7 0-8.5 4.3-8.5 9.5v151.8c0 5.3 3.8 9.5 8.5 9.5h5.5c4.7 0 8.5-4.3 8.5-9.5V437.3c-0.1-5.3-3.8-9.5-8.5-9.5z m29.9 10.7h-5.5c-4.7 0-8.5 4.3-8.5 9.6v130.4c0 5.3 3.8 9.5 8.5 9.5h5.5c4.7 0 8.5-4.3 8.5-9.5V448c0-5.2-3.8-9.5-8.5-9.5z m-149.6 53.7h-5.5c-4.7 0-8.5 4.3-8.5 9.5v23c0 5.2 3.8 9.6 8.5 9.6h5.5c4.7 0 8.5-4.3 8.5-9.6v-23c0-5.3-3.8-9.5-8.5-9.5z m-30 0h-5.5c-4.7 0-8.5 4.3-8.5 9.5v23c0 5.2 3.8 9.6 8.5 9.6h5.5c4.7 0 8.5-4.3 8.5-9.6v-23c0-5.3-3.7-9.5-8.5-9.5zM291.3 460h-5.5c-4.7 0-8.5 4.3-8.5 9.5v87.4c0 5.3 3.8 9.5 8.5 9.5h5.5c4.7 0 8.5-4.3 8.5-9.5v-87.4c0-5.3-3.7-9.5-8.5-9.5z m-29.9 32.2h-5.5c-4.6 0-8.5 4.3-8.5 9.5v23c0 5.2 3.8 9.6 8.5 9.6h5.5c4.7 0 8.5-4.3 8.5-9.6v-23c0-5.3-3.8-9.5-8.5-9.5z m-29.9 0H226c-4.7 0-8.5 4.3-8.5 9.5v23c0 5.2 3.8 9.6 8.5 9.6h5.5c4.6 0 8.5-4.3 8.5-9.6v-23c0-5.3-3.8-9.5-8.5-9.5z m418.9-21.5h-5.5c-4.7 0-8.5 4.3-8.5 9.5v66c0 5.3 3.8 9.5 8.5 9.5h5.5c4.7 0 8.5-4.2 8.5-9.5v-66c-0.1-5.3-3.8-9.5-8.5-9.5z m59.8-10.7h-5.5c-4.6 0-8.5 4.3-8.5 9.5v87.4c0 5.3 3.8 9.5 8.5 9.5h5.5c4.7 0 8.5-4.3 8.5-9.5v-87.4c0-5.3-3.8-9.5-8.5-9.5z m59.8 32.2h-5.5c-4.7 0-8.5 4.3-8.5 9.5v23c0 5.2 3.8 9.6 8.5 9.6h5.5c4.6 0 8.5-4.3 8.5-9.6v-23c0-5.3-3.8-9.5-8.5-9.5z m-29.9-10.8h-5.5c-4.7 0-8.5 4.3-8.5 9.6v44.5c0 5.3 3.8 9.5 8.5 9.5h5.5c4.7 0 8.5-4.3 8.5-9.5V491c0-5.3-3.8-9.6-8.5-9.6zM530.7 460h-5.5c-4.7 0-8.5 4.3-8.5 9.5v87.4c0 5.3 3.8 9.5 8.5 9.5h5.5c4.7 0 8.5-4.3 8.5-9.5v-87.4c0-5.3-3.8-9.5-8.5-9.5z m299.2 32.2h-5.5c-4.6 0-8.5 4.3-8.5 9.5v23c0 5.2 3.8 9.6 8.5 9.6h5.5c4.7 0 8.5-4.3 8.5-9.6v-23c0-5.3-3.8-9.5-8.5-9.5z m-30 0h-5.5c-4.7 0-8.5 4.3-8.5 9.5v23c0 5.2 3.8 9.6 8.5 9.6h5.5c4.7 0 8.5-4.3 8.5-9.6v-23c0-5.3-3.8-9.5-8.5-9.5zM590.5 331.1H585c-4.7 0-8.5 4.3-8.5 9.6v345c0 5.2 3.8 9.5 8.5 9.5h5.5c4.7 0 8.5-4.3 8.5-9.5v-345c0-5.2-3.8-9.6-8.5-9.6z m-29.9-118h-5.5c-4.7 0-8.5 4.3-8.5 9.5v581.2c0 5.3 3.8 9.6 8.5 9.6h5.5c4.7 0 8.5-4.3 8.5-9.6V222.6c0-5.2-3.8-9.5-8.5-9.5z m119.7 171.7h-5.5c-4.7 0-8.5 4.3-8.5 9.5V632c0 5.3 3.8 9.6 8.5 9.6h5.5c4.7 0 8.5-4.3 8.5-9.6V394.4c0-5.3-3.8-9.6-8.5-9.6zM620.4 460h-5.5c-4.6 0-8.5 4.3-8.5 9.5v87.4c0 5.3 3.8 9.5 8.5 9.5h5.5c4.7 0 8.5-4.3 8.5-9.5v-87.4c0-5.3-3.7-9.5-8.5-9.5z m239.4 32.2h-5.5c-4.7 0-8.5 4.3-8.5 9.5v23c0 5.2 3.8 9.6 8.5 9.6h5.5c4.7 0 8.5-4.3 8.5-9.6v-23c0-5.3-3.8-9.5-8.5-9.5z" fill="#FF6666" /><path d="M513 142.5c204.7 0 370.7 166 370.7 370.7S717.7 883.9 513 883.9 142.3 718 142.3 513.2 308.2 142.5 513 142.5m0-18c-52.5 0-103.4 10.3-151.3 30.6-46.3 19.6-87.9 47.6-123.6 83.3-35.7 35.7-63.7 77.3-83.3 123.6-20.3 47.9-30.6 98.8-30.6 151.3s10.3 103.4 30.6 151.3c19.6 46.3 47.6 87.9 83.3 123.6 35.7 35.7 77.3 63.7 123.6 83.3 47.9 20.3 98.8 30.6 151.3 30.6s103.4-10.3 151.3-30.6c46.3-19.6 87.9-47.6 123.6-83.3s63.7-77.3 83.3-123.6c20.3-47.9 30.6-98.8 30.6-151.3S891.5 409.9 871.2 362c-19.6-46.3-47.6-87.9-83.3-123.6-35.7-35.7-77.3-63.7-123.6-83.3-47.9-20.3-98.8-30.6-151.3-30.6z" fill="#FFFFFF" /></svg>