<?xml version="1.0" encoding="UTF-8" standalone="no" ?>
<!DOCTYPE svg PUBLIC "-//W3C//DTD SVG 1.1//EN" "http://www.w3.org/Graphics/SVG/1.1/DTD/svg11.dtd">
<svg xmlns="http://www.w3.org/2000/svg" xmlns:xlink="http://www.w3.org/1999/xlink" version="1.1" width="89" height="89" viewBox="0 0 89 89" xml:space="preserve">
<desc>Created with Fabric.js 4.6.0</desc>
<defs>
</defs>
<g transform="matrix(1 0 0 1 44.5 44.5)" id="TFBZyEsxhomyT94JIWaYe"  >
<g style="" vector-effect="non-scaling-stroke"   >
		<g transform="matrix(1 0 0 1 0 0)" id="YIMZ68Q4_BJcbHBJC4qw6"  >
<path style="stroke: none; stroke-width: 0.2; stroke-dasharray: none; stroke-linecap: butt; stroke-dashoffset: 0; stroke-linejoin: miter; stroke-miterlimit: 4; fill: rgb(255,255,255); fill-rule: nonzero; opacity: 1;" vector-effect="non-scaling-stroke"  transform=" translate(-42.9, -42.52)" d="M 0 42.51878 C 0 19.0363 19.20483 0 42.89518 0 C 66.58553 0 85.79036 19.03631 85.79036 42.51878 C 85.79036 66.00126 66.58553 85.03756 42.89518 85.03756 C 19.204830000000005 85.03756 0 66.00125 0 42.51878 z" stroke-linecap="round" />
</g>
		<g transform="matrix(0.64 0 0 0.64 -0.58 2.8)" id="EQ7GJyhbQ50dJhtTCl0jN"  >
<path style="stroke: none; stroke-width: 1; stroke-dasharray: none; stroke-linecap: butt; stroke-dashoffset: 0; stroke-linejoin: miter; stroke-miterlimit: 4; fill: rgb(255,255,255); fill-rule: nonzero; opacity: 1;" vector-effect="non-scaling-stroke"  transform=" translate(-44.5, -44.5)" d="M 0 89 L 0 0 L 89 0 L 89 89 z" stroke-linecap="round" />
</g>
		<g transform="matrix(0.64 0 0 0.64 16.07 22.35)" id="5CpY0F8XBqHGLfJSLhEA6"  >
<path style="stroke: rgb(255,255,255); stroke-opacity: 0; stroke-width: 0; stroke-dasharray: none; stroke-linecap: butt; stroke-dashoffset: 0; stroke-linejoin: miter; stroke-miterlimit: 4; fill: rgb(80,80,80); fill-rule: evenodd; opacity: 1;" vector-effect="non-scaling-stroke"  transform=" translate(-70.5, -75)" d="M 70 70 C 69 70 67 71 67 73 C 67 74 68 75 69 75 C 69 75 69 80 69 80 C 69 80 72 80 72 80 C 72 80 72 75 72 75 C 73 75 74 74 74 73 C 74 71 72 70 70 70 C 70 70 70 70 70 70" stroke-linecap="round" />
</g>
		<g transform="matrix(0.64 0 0 0.64 -0.26 16.26)" id="oP4QeEGlgHND6nF7zvkj6"  >
<path style="stroke: rgb(255,255,255); stroke-opacity: 0; stroke-width: 0; stroke-dasharray: none; stroke-linecap: butt; stroke-dashoffset: 0; stroke-linejoin: miter; stroke-miterlimit: 4; fill: rgb(80,80,80); fill-rule: evenodd; opacity: 1;" vector-effect="non-scaling-stroke"  transform=" translate(-45, -65.5)" d="M 85 83 C 85 83 56 83 56 83 C 56 83 56 62 56 62 C 56 62 77 62 77 62 C 77 62 77 58 77 58 C 77 54 74 52 70 52 C 67 52 64 54 64 58 C 64 58 64 58 64 58 C 64 58 60 58 60 58 C 60 58 60 58 60 58 C 60 52 65 47 70 47 C 76 47 81 52 81 58 C 81 58 81 62 81 62 C 81 62 85 62 85 62 C 85 62 85 83 85 83 M 86 56 C 86 48 79 42 70 42 C 64 42 58 46 56 51 C 56 51 51 47 51 47 C 51 47 42 55 42 55 C 42 55 34 47 34 47 C 34 47 29 51 29 51 C 29 51 18 56 18 56 C 17 56 16 58 15 59 C 15 59 0 84 0 84 C 0 84 51 84 51 84 C 51 87 53 89 56 89 C 56 89 84 89 84 89 C 88 89 90 86 90 83 C 90 83 90 62 90 62 C 90 59 89 57 86 56 C 86 56 86 56 86 56" stroke-linecap="round" />
</g>
		<g transform="matrix(0.64 0 0 0.64 -1.86 -10.02)" id="U1yLph8NvZsDzAFxGh_qj"  >
<path style="stroke: rgb(255,255,255); stroke-opacity: 0; stroke-width: 0; stroke-dasharray: none; stroke-linecap: butt; stroke-dashoffset: 0; stroke-linejoin: miter; stroke-miterlimit: 4; fill: rgb(80,80,80); fill-rule: evenodd; opacity: 1;" vector-effect="non-scaling-stroke"  transform=" translate(-42.5, -24.5)" d="M 42 48 C 42 48 42 48 42 48 C 42 48 42 48 42 48 C 42 48 42 48 42 48 C 42 48 42 48 42 48 C 42 48 42 48 42 48 C 42 48 42 48 42 48 C 42 48 42 48 42 48 C 42 48 42 48 42 48 C 54 48 62 38 62 20 C 62 8 54 1 42 1 C 42 1 42 1 42 1 C 42 1 42 1 42 1 C 42 1 42 1 42 1 C 42 1 42 1 42 1 C 42 1 42 1 42 1 C 42 1 42 1 42 1 C 42 1 42 1 42 1 C 42 1 42 1 42 1 C 30 1 23 8 23 20 C 23 38 30 48 42 48 C 42 48 42 48 42 48" stroke-linecap="round" />
</g>
</g>
</g>
</svg>