<?xml version="1.0" encoding="utf-8"?>
<svg version="1.1" id="Layer_1" x="0px" y="0px" viewBox="0 0 280.018 280.018" style="enable-background:new 0 0 280.018 280.018;" xmlns="http://www.w3.org/2000/svg">
  <path style="fill:#d32930;fill-opacity:1" d="m 191.1163,208.34321 -102.912889,0.10707 0.47245,17.49587 102.314249,-0.10798 z" id="path2-1"/>
  <path id="path2" d="M 202.06925,183.05284 217.95306,175.7216 165.45771,88.206806 149.5739,95.538055 Z M 114.56271,88.210193 62.048062,175.7134 77.939253,183.04815 130.4529,95.544946 Z" style="fill:#d33029;fill-opacity:1"/>
  <path id="path4" d="m 174.9998,214.39486 c -0.003,28.983 23.50821,52.50759 52.49921,52.51079 28.991,0.003 52.50759,-23.51721 52.51079,-52.49921 0.003,-28.992 -23.50821,-52.50759 -52.49921,-52.51079 -28.991,-0.003 -52.5076,23.49921 -52.51079,52.49921 z m 78.757,0.009 c -0.002,14.491 -11.7549,26.2517 -26.2559,26.2501 -14.501,-0.002 -26.2517,-11.7639 -26.2501,-26.2559 0.002,-14.483 11.75489,-26.2517 26.25589,-26.2501 14.501,0.002 26.2517,11.7729 26.25011,26.2559 z M 192.5262,65.632792 c 0.003,-29 -23.50821,-52.507593 -52.49921,-52.510791 -28.991,-0.0032 -52.507588,23.499209 -52.510786,52.499209 -0.0032,28.983 23.508206,52.50759 52.499206,52.51079 28.991,0.003 52.5076,-23.516209 52.51079,-52.499208 z m -78.757,-0.0087 c 0.002,-14.509 11.7549,-26.251704 26.2559,-26.250105 14.501,0.0016 26.2517,11.746895 26.2501,26.255895 -0.002,14.491 -11.75489,26.251704 -26.25589,26.250105 -14.51,-0.0016 -26.25171,-11.755895 -26.25011,-26.255895 z m -8.7674,148.763038 c 0.003,-28.992 -23.508212,-52.50759 -52.499212,-52.51079 -28.991,-0.003 -52.5075932,23.50821 -52.51079054,52.49921 -0.00319646,28.983 23.50820954,52.50759 52.49920954,52.51079 28.990999,0.003 52.507593,-23.51721 52.510793,-52.49921 z m -78.758003,-0.009 c 0.0016,-14.483 11.763896,-26.2517 26.255896,-26.2501 14.482999,0.002 26.251701,11.77289 26.250104,26.25589 -0.0016,14.491 -11.772895,26.25171 -26.255895,26.25011 -14.492,-0.003 -26.251703,-11.7649 -26.250105,-26.2559 z" style="fill:#26a6d1"/>
  <g id="g8"/>
  <g id="g10"/>
  <g id="g12"/>
  <g id="g14"/>
  <g id="g16"/>
  <g id="g18"/>
  <g id="g20"/>
  <g id="g22"/>
  <g id="g24"/>
  <g id="g26"/>
  <g id="g28"/>
  <g id="g30"/>
  <g id="g32"/>
  <g id="g34"/>
  <g id="g36"/>
</svg>