<?xml version="1.0" encoding="utf-8"?>
<svg id="svg6" version="1.1" viewBox="0 0 1024 1024" style="width: 1em; height: 1em;vertical-align: middle;fill: currentColor;overflow: hidden;" class="svg-icon" xmlns="http://www.w3.org/2000/svg">
  <path id="path2" style="display:inline;fill:#780000;fill-opacity:1" d="M 473.949,747.9 H 135.38 c -13.899,0 -25.271,-11.372 -25.271,-25.27 V 131.561 c 0,-13.899 11.372,-25.271 25.271,-25.271 h 774.342 c 13.898,0 25.27,11.372 25.27,25.271 v 272.53 c 0,13.899 33.372,25.271 47.271,25.271 13.897,0 33.269,-11.372 33.269,-25.271 V 95.561 c 0,-41.822 -33.988,-75.811 -75.81,-75.811 H 93.38 c -41.822,0 -75.811,33.989 -75.811,75.811 V 756.63 c 0,41.821 33.989,75.81 75.811,75.81 h 380.569 c 13.899,0 25.27,-27.372 25.27,-41.27 0,-13.898 -11.245,-43.27 -25.27,-43.27 z"/>
  <path id="path4" d="M 897.891 858.546 C 927.457 822.283 945.272 775.912 945.272 725.498 C 945.272 609.128 850.635 514.491 734.266 514.491 C 617.897 514.491 523.26 609.128 523.26 725.498 C 523.26 841.867 616.832 934.374 733.201 934.374 C 780.962 934.374 826.123 920.584 861.501 893.672 L 897.891 858.546 Z" style="display:inline;fill:#41b87a;fill-opacity:1"/>
  <path id="path853" d="M 732.687 824.201 C 676.521 824.201 630.786 778.467 630.786 722.301 C 630.786 666.135 676.521 620.4 732.687 620.4 C 788.853 620.4 834.588 666.135 834.588 722.301 C 834.588 778.467 788.853 824.201 732.687 824.201 Z" style="display:inline;fill:#ffffff;fill-opacity:1;stroke-width:0.635031"/>
  <path style="display:inline;overflow:hidden;fill:#780000;fill-opacity:1;stroke-width:1.66145" d="m 226.45967,654.8088 c 28.01492,0.0791 50.9693,-15.42825 51.01143,-34.46296 l 0.90483,-408.88303 c 0.0421,-19.03131 -22.84335,-34.67041 -50.85826,-34.74954 -28.01292,-0.0791 -50.96931,15.43051 -51.01142,34.46184 l -0.90483,408.88303 c -0.0425,19.20754 22.84534,34.67155 50.85825,34.75066 z" id="path855-2"/>
  <path id="path855-2-2" d="m 618.8855,466.2823 c 28.01488,-0.0808 50.9076,-9.57877 50.87437,-21.10772 L 669.0461,197.5266 c -0.0332,-11.52695 -22.98031,-20.89385 -50.9952,-20.81311 -28.01288,0.0807 -50.9076,9.57977 -50.87438,21.10672 l 0.71378,247.64798 c 0.0335,11.63395 22.98231,20.89485 50.9952,20.81411 z" style="display:inline;overflow:hidden;fill:#780000;fill-opacity:1;stroke-width:1.29302"/>
  <path id="path855-2-1" d="m 421.77441,654.80706 c 28.0146,0.19943 50.99546,-15.20997 51.07146,-34.24339 l 1.63269,-408.8802 c 0.076,-19.03209 -22.78049,-34.76915 -50.79509,-34.96858 -28.0126,-0.19943 -50.99646,15.2113 -51.07246,34.24338 l -1.63269,408.8802 c -0.0767,19.20701 22.78349,34.76917 50.79609,34.96859 z" style="display:inline;overflow:hidden;fill:#780000;fill-opacity:1;stroke-width:1.66146"/>
  <path style="display:inline;overflow:hidden;fill:#41b87a;fill-opacity:1;stroke-width:1.03182" d="M 981.996 960.865 C 1000.431 939.771 1010.992 918.561 1005.464 913.73 L 886.721 809.954 C 881.194 805.124 861.589 818.429 843.153 839.524 C 824.719 860.617 814.158 881.828 819.685 886.659 L 938.428 990.434 C 944.006 995.309 963.562 981.958 981.996 960.865 Z" id="path855-2-2-0"/>
  <path style="display:inline;overflow:hidden;fill:#780000;fill-opacity:1;stroke-width:1.29302" d="m 814.62523,466.2823 c 28.01488,-0.0808 50.90761,-9.57877 50.87438,-21.10772 L 864.78584,197.5266 c -0.0332,-11.52695 -22.98032,-20.89385 -50.99521,-20.81311 -28.01288,0.0807 -50.9076,9.57977 -50.87438,21.10672 l 0.71378,247.64798 c 0.0335,11.63395 22.98231,20.89485 50.9952,20.81411 z" id="path855-2-2-1"/>
</svg>