<?xml version="1.0" encoding="utf-8"?>
<svg class="svg-icon" style="width: 1em; height: 1em;vertical-align: middle;fill: currentColor;overflow: hidden;" viewBox="0 0 1024 1024" version="1.1" id="svg6" xmlns="http://www.w3.org/2000/svg">
  <path d="M 463.949 747.9 L 125.38 747.9 C 111.481 747.9 100.109 736.528 100.109 722.63 L 100.109 131.561 C 100.109 117.662 111.481 106.29 125.38 106.29 L 599.722 106.29 C 613.62 106.29 624.992 117.662 624.992 131.561 L 624.992 404.091 C 624.992 417.99 658.364 429.362 672.263 429.362 C 686.16 429.362 705.532 417.99 705.532 404.091 L 705.532 95.561 C 705.532 53.739 671.544 19.75 629.722 19.75 L 83.38 19.75 C 41.558 19.75 7.569 53.739 7.569 95.561 L 7.569 756.63 C 7.569 798.451 41.558 832.44 83.38 832.44 L 463.949 832.44 C 477.848 832.44 489.219 805.068 489.219 791.17 C 489.219 777.272 477.974 747.9 463.949 747.9 Z" style="display:inline;fill:#780000;fill-opacity:1" id="path2"/>
  <path style="display:inline;fill:#41b87a;fill-opacity:1" d="M 897.891 858.546 C 927.457 822.283 945.272 775.912 945.272 725.498 C 945.272 609.128 850.635 514.491 734.266 514.491 C 617.897 514.491 523.26 609.128 523.26 725.498 C 523.26 841.867 616.832 934.374 733.201 934.374 C 780.962 934.374 826.123 920.584 861.501 893.672 L 897.891 858.546 Z" id="path4"/>
  <path style="display:inline;fill:#ffffff;fill-opacity:1;stroke-width:0.635031" d="M 732.687 824.201 C 676.521 824.201 630.786 778.467 630.786 722.301 C 630.786 666.135 676.521 620.4 732.687 620.4 C 788.853 620.4 834.588 666.135 834.588 722.301 C 834.588 778.467 788.853 824.201 732.687 824.201 Z" id="path853"/>
  <path id="path855-2" d="M 574.591 243.958 C 574.591 215.943 560.807 193.023 543.958 193.023 L 182.026 193.023 C 165.18 193.023 151.394 215.943 151.394 243.958 C 151.394 271.971 165.18 294.893 182.026 294.893 L 543.958 294.893 C 560.96 294.893 574.591 271.971 574.591 243.958 Z" style="display:inline;overflow:hidden;fill:#780000;fill-opacity:1;stroke-width:1.56315"/>
  <path style="display:inline;overflow:hidden;fill:#780000;fill-opacity:1;stroke-width:1.29302" d="M 440.964 602.059 C 440.964 574.044 431.532 551.124 420.003 551.124 L 172.354 551.124 C 160.827 551.124 151.394 574.044 151.394 602.059 C 151.394 630.072 160.827 652.994 172.354 652.994 L 420.003 652.994 C 431.637 652.994 440.964 630.072 440.964 602.059 Z" id="path855-2-2"/>
  <path style="display:inline;overflow:hidden;fill:#780000;fill-opacity:1;stroke-width:1.43784" d="M 509.459 423.008 C 509.459 394.993 497.796 372.074 483.541 372.074 L 177.312 372.074 C 163.058 372.074 151.394 394.993 151.394 423.008 C 151.394 451.021 163.058 473.943 177.312 473.943 L 483.541 473.943 C 497.926 473.943 509.459 451.021 509.459 423.008 Z" id="path855-2-1"/>
  <path id="path855-2-2-0" d="M 981.996 960.865 C 1000.431 939.771 1010.992 918.561 1005.464 913.73 L 886.721 809.954 C 881.194 805.124 861.589 818.429 843.153 839.524 C 824.719 860.617 814.158 881.828 819.685 886.659 L 938.428 990.434 C 944.006 995.309 963.562 981.958 981.996 960.865 Z" style="display:inline;overflow:hidden;fill:#41b87a;fill-opacity:1;stroke-width:1.03182"/>
</svg>