<?xml version="1.0" encoding="UTF-8" standalone="no" ?>
<!DOCTYPE svg PUBLIC "-//W3C//DTD SVG 1.1//EN" "http://www.w3.org/Graphics/SVG/1.1/DTD/svg11.dtd">
<svg xmlns="http://www.w3.org/2000/svg" xmlns:xlink="http://www.w3.org/1999/xlink" version="1.1" width="512" height="512" viewBox="0 0 512 512" xml:space="preserve">
<desc>Created with Fabric.js 4.6.0</desc>
<defs>
</defs>
<g transform="matrix(1 0 0 1 256 256)" id="Z4_fAS2IG2_uIZqNy1fOK"  >
<g style="" vector-effect="non-scaling-stroke"   >
		<g transform="matrix(1 0 0 1 0 0)" id="QYbcyqRp5otthOkB7usos"  >
<path style="stroke: none; stroke-width: 1.16; stroke-dasharray: none; stroke-linecap: butt; stroke-dashoffset: 0; stroke-linejoin: miter; stroke-miterlimit: 4; fill: rgb(255,255,255); fill-rule: nonzero; opacity: 1;" vector-effect="non-scaling-stroke"  transform=" translate(-254.29, -252.06)" d="M 0 252.05962 C 0 112.85094000000001 113.84995 0 254.29097 0 C 394.73199 0 508.58194 112.85094 508.58194 252.05962 C 508.58194 391.26829999999995 394.73199 504.11924 254.29097 504.11924 C 113.84994999999998 504.11924 0 391.2683 0 252.05962 z" stroke-linecap="round" />
</g>
		<g transform="matrix(0.7 0 0 0.7 105.6 86.82)" id="qk6EpSbNoWttqLJ_b5hIO"  >
<path style="stroke: rgb(255,255,255); stroke-opacity: 0; stroke-width: 0; stroke-dasharray: none; stroke-linecap: butt; stroke-dashoffset: 0; stroke-linejoin: miter; stroke-miterlimit: 4; fill: rgb(80,80,80); fill-rule: evenodd; opacity: 1;" vector-effect="non-scaling-stroke"  transform=" translate(-401.5, -369.86)" d="M 361 357 C 361 357 414 357 414 357 C 414 357 406 349 406 349 C 402 344 402 336 407 331 C 412 326 420 327 425 332 C 425 332 452 361 452 361 C 456 366 456 373 452 378 C 452 378 425 408 425 408 C 423 410 419 412 416 412 C 413 412 410 410 407 408 C 402 404 401 396 406 390 C 406 390 414 382 414 382 C 414 382 361 382 361 382 C 354 382 348 377 348 370 C 348 363 354 357 361 357 C 361 357 361 357 361 357" stroke-linecap="round" />
</g>
		<g transform="matrix(0.7 0 0 0.7 106.3 86.57)" id="r35DW6V9tqg_Zyj34cZdM"  >
<path style="stroke: rgb(255,255,255); stroke-opacity: 0; stroke-width: 0; stroke-dasharray: none; stroke-linecap: butt; stroke-dashoffset: 0; stroke-linejoin: miter; stroke-miterlimit: 4; fill: rgb(80,80,80); fill-rule: evenodd; opacity: 1;" vector-effect="non-scaling-stroke"  transform=" translate(-402.5, -369.5)" d="M 402 451 C 358 451 321 414 321 370 C 321 325 358 289 402 289 C 447 289 484 325 484 370 C 484 414 447 451 402 451 C 402 451 402 451 402 451 M 402 263 C 344 263 296 311 296 370 C 296 429 344 476 402 476 C 461 476 509 429 509 370 C 509 311 461 263 402 263 C 402 263 402 263 402 263" stroke-linecap="round" />
</g>
		<g transform="matrix(0.7 0 0 0.7 -25.51 -9.58)" id="zaBpVIu_Y-hCQxPdZFAsj"  >
<path style="stroke: rgb(255,255,255); stroke-opacity: 0; stroke-width: 0; stroke-dasharray: none; stroke-linecap: butt; stroke-dashoffset: 0; stroke-linejoin: miter; stroke-miterlimit: 4; fill: rgb(80,80,80); fill-rule: evenodd; opacity: 1;" vector-effect="non-scaling-stroke"  transform=" translate(-214, -232)" d="M 399 115 C 399 140 378 161 353 161 C 353 161 353 161 353 161 C 353 161 75 161 75 161 C 75 161 75 161 75 161 C 50 161 29 140 29 115 C 29 115 29 114 29 114 C 29 89 50 69 75 69 C 75 69 353 69 353 69 C 378 69 399 89 399 114 C 399 114 399 115 399 115 C 399 115 399 115 399 115 M 353 44 C 353 44 75 44 75 44 C 36 44 4 75 4 114 C 4 114 4 115 4 115 C 4 139 16 161 35 173 C 16 186 4 207 4 232 C 4 256 16 277 35 290 C 16 303 4 324 4 349 C 4 388 36 420 75 420 C 75 420 266 420 266 420 C 273 420 278 414 278 407 C 278 400 273 394 266 394 C 266 394 75 394 75 394 C 50 394 29 374 29 348 C 29 323 50 303 75 303 C 75 303 287 303 287 303 C 294 303 300 297 300 290 C 300 283 294 277 287 277 C 287 277 75 277 75 277 C 50 277 29 257 29 231 C 29 206 50 186 75 186 C 75 186 353 186 353 186 C 378 186 399 206 399 232 C 399 239 404 244 412 244 C 419 244 424 238 424 231 C 424 207 412 186 394 173 C 412 160 424 139 424 115 C 424 115 424 114 424 114 C 424 75 392 44 353 44 C 353 44 353 44 353 44" stroke-linecap="round" />
</g>
		<g transform="matrix(0.7 0 0 0.7 12.95 -91.75)" id="7zBHol_lq9U3F0t7Id7wM"  >
<path style="stroke: rgb(255,255,255); stroke-opacity: 0; stroke-width: 0; stroke-dasharray: none; stroke-linecap: butt; stroke-dashoffset: 0; stroke-linejoin: miter; stroke-miterlimit: 4; fill: rgb(80,80,80); fill-rule: evenodd; opacity: 1;" vector-effect="non-scaling-stroke"  transform=" translate(-269, -114.5)" d="M 328 102 C 328 102 210 102 210 102 C 203 102 197 108 197 115 C 197 122 203 127 210 127 C 210 127 328 127 328 127 C 335 127 341 122 341 115 C 341 108 335 102 328 102 C 328 102 328 102 328 102" stroke-linecap="round" />
</g>
		<g transform="matrix(0.7 0 0 0.7 -92.65 -91.4)" id="eKc5UG9H0rqdghDm8Audz"  >
<path style="stroke: rgb(0,0,0); stroke-width: 0; stroke-dasharray: none; stroke-linecap: butt; stroke-dashoffset: 0; stroke-linejoin: miter; stroke-miterlimit: 4; fill: rgb(80,80,80); fill-rule: nonzero; opacity: 1;" vector-effect="non-scaling-stroke"  transform=" translate(-13, -13)" d="M 0 13 C 0 5.8203 5.8203 0 13 0 C 20.1797 0 26 5.8203 26 13 C 26 20.1797 20.1797 26 13 26 C 5.8203 26 0 20.1797 0 13 Z" stroke-linecap="round" />
</g>
		<g transform="matrix(0.7 0 0 0.7 12.95 -9.93)" id="IagVOZ83KDk43RMCDOJfL"  >
<path style="stroke: rgb(255,255,255); stroke-opacity: 0; stroke-width: 0; stroke-dasharray: none; stroke-linecap: butt; stroke-dashoffset: 0; stroke-linejoin: miter; stroke-miterlimit: 4; fill: rgb(80,80,80); fill-rule: evenodd; opacity: 1;" vector-effect="non-scaling-stroke"  transform=" translate(-269, -231.5)" d="M 341 232 C 341 225 335 219 328 219 C 328 219 210 219 210 219 C 203 219 197 225 197 232 C 197 239 203 244 210 244 C 210 244 328 244 328 244 C 335 244 341 239 341 232 C 341 232 341 232 341 232" stroke-linecap="round" />
</g>
		<g transform="matrix(0.7 0 0 0.7 -92.65 -11.68)" id="iGXVSG1oTvLDrBjAUk2n3"  >
<path style="stroke: rgb(0,0,0); stroke-width: 0; stroke-dasharray: none; stroke-linecap: butt; stroke-dashoffset: 0; stroke-linejoin: miter; stroke-miterlimit: 4; fill: rgb(80,80,80); fill-rule: nonzero; opacity: 1;" vector-effect="non-scaling-stroke"  transform=" translate(-13, -13)" d="M 0 13 C 0 5.8203 5.8203 0 13 0 C 20.1797 0 26 5.8203 26 13 C 26 20.1797 20.1797 26 13 26 C 5.8203 26 0 20.1797 0 13 Z" stroke-linecap="round" />
</g>
		<g transform="matrix(0.7 0 0 0.7 -9.78 71.89)" id="-Al75MemtbSI7Z5wv91au"  >
<path style="stroke: rgb(255,255,255); stroke-opacity: 0; stroke-width: 0; stroke-dasharray: none; stroke-linecap: butt; stroke-dashoffset: 0; stroke-linejoin: miter; stroke-miterlimit: 4; fill: rgb(80,80,80); fill-rule: evenodd; opacity: 1;" vector-effect="non-scaling-stroke"  transform=" translate(-236.5, -348.5)" d="M 210 336 C 203 336 197 342 197 349 C 197 356 203 361 210 361 C 210 361 263 361 263 361 C 270 361 276 356 276 349 C 276 342 270 336 263 336 C 263 336 210 336 210 336" stroke-linecap="round" />
</g>
		<g transform="matrix(0.7 0 0 0.7 -92.65 67.34)" id="RZACIhG_OlVJxgZO_T4qp"  >
<path style="stroke: rgb(0,0,0); stroke-width: 0; stroke-dasharray: none; stroke-linecap: butt; stroke-dashoffset: 0; stroke-linejoin: miter; stroke-miterlimit: 4; fill: rgb(80,80,80); fill-rule: nonzero; opacity: 1;" vector-effect="non-scaling-stroke"  transform=" translate(-13, -13)" d="M 0 13 C 0 5.8203 5.8203 0 13 0 C 20.1797 0 26 5.8203 26 13 C 26 20.1797 20.1797 26 13 26 C 5.8203 26 0 20.1797 0 13 Z" stroke-linecap="round" />
</g>
</g>
</g>
</svg>