<?xml version="1.0" standalone="no"?>
<!DOCTYPE svg PUBLIC "-//W3C//DTD SVG 1.1//EN"
"http://www.w3.org/Graphics/SVG/1.1/DTD/svg11.dtd">

<svg height="512" transform="translate(0.5,0.5)" version="1.1" width="512" xmlns="http://www.w3.org/2000/svg" xmlns:nch="http://www.nchsoftware.com/drawpad/" xmlns:xlink="http://www.w3.org/1999/xlink"><rect fill="rgb(255,255,255)" fill-opacity="1.000" height="512" id="background" width="512" x="0" y="0"/><g class="Layer"><path d="M402,451 C358,451 321,414 321,370 C321,325 358,289 402,289 C447,289 484,325 484,370 C484,414 447,451 402,451 C402,451 402,451 402,451M402,263 C344,263 296,311 296,370 C296,429 344,476 402,476 C461,476 509,429 509,370 C509,311 461,263 402,263 C402,263 402,263 402,263" fill="rgb(80,80,80)" fill-opacity="1.000" fill-rule="evenodd" nch:path="402.4,450.9,357.7,450.9,321.3,414.4 321.3,369.7,321.3,325.0,357.7,288.5 402.4,288.5,447.1,288.5,483.6,325.0 483.6,369.7,483.6,414.4,447.1,450.9 402.4,450.9,402.4,450.9,402.4,450.9 402.4,450.9,357.7,450.9,402.4,263.4 M402.4,263.4,343.8,263.4,296.0,311.1 296.0,369.8,296.0,428.6,343.7,476.3 402.4,476.3,461.1,476.3,508.9,428.6 508.9,369.8,508.9,311.1,461.1,263.4 402.4,263.4,402.4,263.4,402.4,263.4 402.4,263.4," nch:penfill="rgba(80,80,80,255)" stroke="rgb(255,255,255,0)" stroke-width="0"/><path d="M361,357 C361,357 414,357 414,357 C414,357 406,349 406,349 C402,344 402,336 407,331 C412,326 420,327 425,332 C425,332 452,361 452,361 C456,366 456,373 452,378 C452,378 425,408 425,408 C423,410 419,412 416,412 C413,412 410,410 407,408 C402,404 401,396 406,390 C406,390 414,382 414,382 C414,382 361,382 361,382 C354,382 348,377 348,370 C348,363 354,357 361,357 C361,357 361,357 361,357" fill="rgb(80,80,80)" fill-opacity="1.000" fill-rule="evenodd" nch:path="360.9,357.1,360.9,357.1,413.7,357.1 413.7,357.1,413.7,357.1,406.3,349.1 406.3,349.1,401.6,343.9,402.0,335.9 407.1,331.2,412.3,326.4,420.3,326.9 425.0,332.0,425.0,332.0,451.7,361.2 451.7,361.2,456.1,366.1,456.1,373.4 451.7,378.3,451.7,378.3,425.0,407.5 425.0,407.5,422.5,410.3,419.1,411.6 415.6,411.6,412.6,411.6,409.5,410.5 407.0,408.3,401.9,403.6,401.5,395.6 406.2,390.5,406.2,390.5,413.6,382.4 413.6,382.4,413.6,382.4,360.9,382.4 360.9,382.4,353.9,382.4,348.2,376.7 348.2,369.7,348.2,362.7,353.9,357.1 360.9,357.1,360.9,357.1,360.9,357.1 360.9,357.1," nch:penfill="rgba(80,80,80,255)" stroke="rgb(255,255,255,0)" stroke-width="0"/><path d="M399,115 C399,140 378,161 353,161 C353,161 353,161 353,161 C353,161 75,161 75,161 C75,161 75,161 75,161 C50,161 29,140 29,115 C29,115 29,114 29,114 C29,89 50,69 75,69 C75,69 353,69 353,69 C378,69 399,89 399,114 C399,114 399,115 399,115 C399,115 399,115 399,115M353,44 C353,44 75,44 75,44 C36,44 4,75 4,114 C4,114 4,115 4,115 C4,139 16,161 35,173 C16,186 4,207 4,232 C4,256 16,277 35,290 C16,303 4,324 4,349 C4,388 36,420 75,420 C75,420 266,420 266,420 C273,420 278,414 278,407 C278,400 273,394 266,394 C266,394 75,394 75,394 C50,394 29,374 29,348 C29,323 50,303 75,303 C75,303 287,303 287,303 C294,303 300,297 300,290 C300,283 294,277 287,277 C287,277 75,277 75,277 C50,277 29,257 29,231 C29,206 50,186 75,186 C75,186 353,186 353,186 C378,186 399,206 399,232 C399,239 404,244 412,244 C419,244 424,238 424,231 C424,207 412,186 394,173 C412,160 424,139 424,115 C424,115 424,114 424,114 C424,75 392,44 353,44 C353,44 353,44 353,44" fill="rgb(80,80,80)" fill-opacity="1.000" fill-rule="evenodd" nch:path="398.8,115.2,398.8,140.2,378.5,160.5 353.5,160.5,353.5,160.5,353.2,160.5 353.2,160.5,353.2,160.5,74.9,160.5 74.9,160.5,74.9,160.5,74.6,160.5 74.6,160.5,49.6,160.5,29.2,140.2 29.2,115.2,29.2,115.2,29.2,114.1 29.2,114.1,29.2,89.2,49.6,68.8 74.6,68.8,74.6,68.8,353.4,68.8 353.4,68.8,378.4,68.8,398.7,89.2 398.7,114.1,398.7,114.1,398.7,115.2 398.7,115.2,398.7,115.2,398.8,115.2 398.8,115.2,398.8,140.2,353.5,43.5 M353.5,43.5,353.5,43.5,74.7,43.5 74.7,43.5,35.8,43.5,4.1,75.2 4.1,114.1,4.1,114.1,4.1,115.2 4.1,115.2,4.1,139.2,16.1,160.5 34.6,173.2,16.2,186.1,4.1,207.5 4.1,231.9,4.1,256.0,16.2,277.3 34.6,290.1,16.1,303.0,4.1,324.4 4.1,348.9,4.1,388.0,35.9,419.8 75.0,419.8,75.0,419.8,265.6,419.8 265.6,419.8,272.6,419.8,278.3,414.1 278.3,407.1,278.3,400.1,272.6,394.4 265.6,394.4,265.6,394.4,74.9,394.4 74.9,394.4,49.7,394.4,29.2,373.9 29.2,348.3,29.2,323.1,49.7,302.7 74.9,302.7,74.9,302.7,286.9,302.7 286.9,302.7,293.9,302.7,299.6,297.0 299.6,290.0,299.6,283.0,293.9,277.3 286.9,277.3,286.9,277.3,74.9,277.3 74.9,277.3,49.7,277.3,29.2,256.8 29.2,231.2,29.2,206.0,49.7,185.6 74.9,185.6,74.9,185.6,353.2,185.6 353.2,185.6,378.4,185.6,398.8,206.0 398.8,231.7,398.8,238.7,404.5,244.0 411.5,244.0,418.5,244.0,424.2,238.2 424.2,231.1,424.2,207.1,412.1,185.8 393.8,173.0,412.1,160.2,424.2,139.0 424.2,115.0,424.2,115.0,424.2,113.9 424.2,113.9,424.1,75.2,392.4,43.5 353.5,43.5,353.5,43.5,353.5,43.5 353.5,43.5," nch:penfill="rgba(80,80,80,255)" stroke="rgb(255,255,255,0)" stroke-width="0"/><path d="M328,102 C328,102 210,102 210,102 C203,102 197,108 197,115 C197,122 203,127 210,127 C210,127 328,127 328,127 C335,127 341,122 341,115 C341,108 335,102 328,102 C328,102 328,102 328,102" fill="rgb(80,80,80)" fill-opacity="1.000" fill-rule="evenodd" nch:path="328.0,102.0,328.0,102.0,210.0,102.0 210.0,102.0,202.9,102.0,197.3,107.6 197.3,114.7,197.3,121.7,202.9,127.4 210.0,127.4,210.0,127.4,328.1,127.4 328.1,127.4,335.1,127.4,340.8,121.7 340.8,114.7,340.8,107.6,335.0,102.0 328.0,102.0,328.0,102.0,328.0,102.0 328.0,102.0," nch:penfill="rgba(80,80,80,255)" stroke="rgb(255,255,255,0)" stroke-width="0"/><ellipse cx="118" cy="115" fill="rgb(80,80,80)" fill-opacity="1.000" nch:colorstroke="rgba(0,0,0,255)" rx="13" ry="13" stroke="rgb(0,0,0)" stroke-opacity="1.000" stroke-width="0"/><path d="M341,232 C341,225 335,219 328,219 C328,219 210,219 210,219 C203,219 197,225 197,232 C197,239 203,244 210,244 C210,244 328,244 328,244 C335,244 341,239 341,232 C341,232 341,232 341,232" fill="rgb(80,80,80)" fill-opacity="1.000" fill-rule="evenodd" nch:path="340.7,231.7,340.7,224.6,335.0,219.0 328.0,219.0,328.0,219.0,210.0,219.0 210.0,219.0,202.9,219.0,197.3,224.6 197.3,231.7,197.3,238.7,202.9,244.4 210.0,244.4,210.0,244.4,328.1,244.4 328.1,244.4,335.0,244.3,340.7,238.6 340.7,231.7,340.7,231.7,340.7,231.7 340.7,231.7," nch:penfill="rgba(80,80,80,255)" stroke="rgb(255,255,255,0)" stroke-width="0"/><ellipse cx="118" cy="229" fill="rgb(80,80,80)" fill-opacity="1.000" nch:colorstroke="rgba(0,0,0,255)" rx="13" ry="13" stroke="rgb(0,0,0)" stroke-opacity="1.000" stroke-width="0"/><path d="M210,336 C203,336 197,342 197,349 C197,356 203,361 210,361 C210,361 263,361 263,361 C270,361 276,356 276,349 C276,342 270,336 263,336 C263,336 210,336 210,336" fill="rgb(80,80,80)" fill-opacity="1.000" fill-rule="evenodd" nch:path="210.0,335.9,202.9,335.9,197.3,341.6 197.3,348.6,197.3,355.7,202.9,361.3 210.0,361.3,210.0,361.3,263.4,361.3 263.4,361.3,270.5,361.3,276.1,355.7 276.1,348.6,276.1,341.6,270.5,335.9 263.4,335.9,263.4,335.9,210.0,335.9 210.0,335.9," nch:penfill="rgba(80,80,80,255)" stroke="rgb(255,255,255,0)" stroke-width="0"/><ellipse cx="118" cy="342" fill="rgb(80,80,80)" fill-opacity="1.000" nch:colorstroke="rgba(0,0,0,255)" rx="13" ry="13" stroke="rgb(0,0,0)" stroke-opacity="1.000" stroke-width="0"/></g></svg>