<?xml version="1.0" encoding="UTF-8" standalone="no" ?>
<!DOCTYPE svg PUBLIC "-//W3C//DTD SVG 1.1//EN" "http://www.w3.org/Graphics/SVG/1.1/DTD/svg11.dtd">
<svg xmlns="http://www.w3.org/2000/svg" xmlns:xlink="http://www.w3.org/1999/xlink" version="1.1" width="512" height="512" viewBox="0 0 512 512" xml:space="preserve">
<desc>Created with Fabric.js 4.6.0</desc>
<defs>
</defs>
<g transform="matrix(1 0 0 1 256 256)" id="IW-uHmW7YXBfwPGlm-I3o"  >
<g style="" vector-effect="non-scaling-stroke"   >
		<g transform="matrix(1 0 0 1 0 0)" id="E0zXM7nlI1oE4i34YrXFg"  >
<path style="stroke: none; stroke-width: 1.16; stroke-dasharray: none; stroke-linecap: butt; stroke-dashoffset: 0; stroke-linejoin: miter; stroke-miterlimit: 4; fill: rgb(255,255,255); fill-rule: nonzero; opacity: 1;" vector-effect="non-scaling-stroke"  transform=" translate(-254.29, -252.06)" d="M 0 252.05962 C 0 112.85094000000001 113.84995 0 254.29097 0 C 394.73199 0 508.58194 112.85094 508.58194 252.05962 C 508.58194 391.26829999999995 394.73199 504.11924 254.29097 504.11924 C 113.84994999999998 504.11924 0 391.2683 0 252.05962 z" stroke-linecap="round" />
</g>
		<g transform="matrix(0.72 0 0 0.72 4 -0.61)" id="J0sN-YEhWtI4JbgNgOsXw"  >
<path style="stroke: rgb(80,80,0); stroke-width: 0; stroke-dasharray: none; stroke-linecap: butt; stroke-dashoffset: 0; stroke-linejoin: miter; stroke-miterlimit: 4; fill: rgb(80,80,80); fill-rule: evenodd; opacity: 1;" vector-effect="non-scaling-stroke"  transform=" translate(-256, -256)" d="M 458 450 C 458 450 428 443 428 443 C 428 443 382 335 382 335 C 389 329 395 322 402 315 C 402 315 459 449 459 449 C 459 449 459 450 459 450 C 459 450 459 450 458 450 C 458 450 458 450 458 450 M 381 450 C 381 450 343 361 343 361 C 352 356 361 351 369 345 C 369 345 409 439 409 439 C 399 439 388 443 381 450 C 381 450 381 450 381 450 M 353 494 C 353 494 353 495 353 495 C 353 495 353 494 353 494 C 353 494 303 376 303 376 C 312 374 320 371 329 368 C 329 368 371 467 371 467 C 371 467 353 494 353 494 M 256 366 C 160 366 81 287 81 191 C 81 95 160 16 256 16 C 352 16 431 95 431 191 C 431 287 352 366 256 366 C 256 366 256 366 256 366 M 159 494 C 159 494 159 495 159 495 C 159 495 159 494 159 494 C 159 494 141 467 141 467 C 141 467 183 368 183 368 C 192 371 200 374 209 376 C 209 376 159 494 159 494 M 103 439 C 103 439 143 345 143 345 C 151 351 160 356 169 361 C 169 361 131 450 131 450 C 124 443 113 439 103 439 C 103 439 103 439 103 439 M 84 443 C 84 443 54 450 54 450 C 53 450 53 450 53 450 C 53 450 53 449 53 449 C 53 449 110 315 110 315 C 117 322 123 329 130 335 C 130 335 84 443 84 443 M 474 443 C 474 443 413 300 413 300 C 434 269 447 231 447 191 C 447 86 361 0 256 0 C 151 0 65 86 65 191 C 65 231 78 269 99 300 C 99 300 38 443 38 443 C 35 449 36 456 40 461 C 43 465 50 467 57 466 C 57 466 103 456 103 456 C 109 455 117 458 120 463 C 120 463 145 503 145 503 C 148 509 154 512 159 512 C 160 512 160 512 160 512 C 166 511 171 507 174 500 C 174 500 226 380 226 380 C 235 381 246 382 256 382 C 266 382 277 381 286 380 C 286 380 338 500 338 500 C 341 507 346 511 352 512 C 352 512 352 512 353 512 C 358 512 364 509 367 503 C 367 503 392 463 392 463 C 395 458 403 455 409 456 C 409 456 455 466 455 466 C 462 467 469 465 472 461 C 476 456 477 449 474 443 C 474 443 474 443 474 443" stroke-linecap="round" />
</g>
		<g transform="matrix(0.72 0 0 0.72 4 -0.61)" id="ykcq_bIJVoO0AhthGo62B"  >
<path style="stroke: rgb(80,80,0); stroke-width: 1; stroke-dasharray: none; stroke-linecap: round; stroke-dashoffset: 0; stroke-linejoin: round; stroke-miterlimit: 4; fill: none; fill-rule: nonzero; opacity: 1;" vector-effect="non-scaling-stroke"  transform=" translate(-256, -256)" d="M 458 450 C 458 450 428 443 428 443 C 428 443 382 335 382 335 C 389 329 395 322 402 315 C 402 315 459 449 459 449 C 459 449 459 450 459 450 C 459 450 459 450 458 450 C 458 450 458 450 458 450 M 381 450 C 381 450 343 361 343 361 C 352 356 361 351 369 345 C 369 345 409 439 409 439 C 399 439 388 443 381 450 C 381 450 381 450 381 450 M 353 494 C 353 494 353 495 353 495 C 353 495 353 494 353 494 C 353 494 303 376 303 376 C 312 374 320 371 329 368 C 329 368 371 467 371 467 C 371 467 353 494 353 494 M 256 366 C 160 366 81 287 81 191 C 81 95 160 16 256 16 C 352 16 431 95 431 191 C 431 287 352 366 256 366 C 256 366 256 366 256 366 M 159 494 C 159 494 159 495 159 495 C 159 495 159 494 159 494 C 159 494 141 467 141 467 C 141 467 183 368 183 368 C 192 371 200 374 209 376 C 209 376 159 494 159 494 M 103 439 C 103 439 143 345 143 345 C 151 351 160 356 169 361 C 169 361 131 450 131 450 C 124 443 113 439 103 439 C 103 439 103 439 103 439 M 84 443 C 84 443 54 450 54 450 C 53 450 53 450 53 450 C 53 450 53 449 53 449 C 53 449 110 315 110 315 C 117 322 123 329 130 335 C 130 335 84 443 84 443 M 474 443 C 474 443 413 300 413 300 C 434 269 447 231 447 191 C 447 86 361 0 256 0 C 151 0 65 86 65 191 C 65 231 78 269 99 300 C 99 300 38 443 38 443 C 35 449 36 456 40 461 C 43 465 50 467 57 466 C 57 466 103 456 103 456 C 109 455 117 458 120 463 C 120 463 145 503 145 503 C 148 509 154 512 159 512 C 160 512 160 512 160 512 C 166 511 171 507 174 500 C 174 500 226 380 226 380 C 235 381 246 382 256 382 C 266 382 277 381 286 380 C 286 380 338 500 338 500 C 341 507 346 511 352 512 C 352 512 352 512 353 512 C 358 512 364 509 367 503 C 367 503 392 463 392 463 C 395 458 403 455 409 456 C 409 456 455 466 455 466 C 462 467 469 465 472 461 C 476 456 477 449 474 443 C 474 443 474 443 474 443" stroke-linecap="round" />
</g>
		<g transform="matrix(0.72 0 0 0.72 4 -47.51)" id="7iuSsYvmP4sstDCtis5hP"  >
<path style="stroke: rgb(80,80,0); stroke-width: 0; stroke-dasharray: none; stroke-linecap: butt; stroke-dashoffset: 0; stroke-linejoin: miter; stroke-miterlimit: 4; fill: rgb(80,80,80); fill-rule: evenodd; opacity: 1;" vector-effect="non-scaling-stroke"  transform=" translate(-256, -191)" d="M 256 278 C 208 278 169 239 169 191 C 169 143 208 104 256 104 C 304 104 343 143 343 191 C 343 239 304 278 256 278 C 256 278 256 278 256 278 M 256 88 C 199 88 153 134 153 191 C 153 248 199 294 256 294 C 313 294 359 248 359 191 C 359 134 313 88 256 88 C 256 88 256 88 256 88" stroke-linecap="round" />
</g>
		<g transform="matrix(0.72 0 0 0.72 4 -47.51)" id="8CFmMIdfW4WEz3ufVGJzM"  >
<path style="stroke: rgb(80,80,0); stroke-width: 1; stroke-dasharray: none; stroke-linecap: round; stroke-dashoffset: 0; stroke-linejoin: round; stroke-miterlimit: 4; fill: none; fill-rule: nonzero; opacity: 1;" vector-effect="non-scaling-stroke"  transform=" translate(-256, -191)" d="M 256 278 C 208 278 169 239 169 191 C 169 143 208 104 256 104 C 304 104 343 143 343 191 C 343 239 304 278 256 278 C 256 278 256 278 256 278 M 256 88 C 199 88 153 134 153 191 C 153 248 199 294 256 294 C 313 294 359 248 359 191 C 359 134 313 88 256 88 C 256 88 256 88 256 88" stroke-linecap="round" />
</g>
		<g transform="matrix(0.72 0 0 0.72 4 -47.15)" id="8uR-r3ao-f1lsKPa-1ScP"  >
<path style="stroke: rgb(80,80,0); stroke-width: 0; stroke-dasharray: none; stroke-linecap: butt; stroke-dashoffset: 0; stroke-linejoin: miter; stroke-miterlimit: 4; fill: rgb(80,80,80); fill-rule: evenodd; opacity: 1;" vector-effect="non-scaling-stroke"  transform=" translate(-256, -191.5)" d="M 256 105 C 304 105 342 144 342 191 C 342 239 304 277 256 277 C 208 277 170 239 170 191 C 170 144 208 105 256 105 C 256 105 256 105 256 105 M 256 104 C 208 104 169 143 169 191 C 169 239 208 278 256 278 C 304 278 343 239 343 191 C 343 143 304 104 256 104 C 256 104 256 104 256 104 M 256 89 C 313 89 358 135 358 191 C 358 248 313 294 256 294 C 199 294 154 248 154 191 C 154 135 199 89 256 89 C 256 89 256 89 256 89 M 256 88 C 199 88 153 134 153 191 C 153 248 199 295 256 295 C 313 295 359 248 359 191 C 359 134 313 88 256 88 C 256 88 256 88 256 88" stroke-linecap="round" />
</g>
		<g transform="matrix(0.72 0 0 0.72 4 -47.15)" id="j5H0OudPkZPYrQtzCrXqU"  >
<path style="stroke: rgb(80,80,0); stroke-width: 1; stroke-dasharray: none; stroke-linecap: round; stroke-dashoffset: 0; stroke-linejoin: round; stroke-miterlimit: 4; fill: none; fill-rule: nonzero; opacity: 1;" vector-effect="non-scaling-stroke"  transform=" translate(-256, -191.5)" d="M 256 105 C 304 105 342 144 342 191 C 342 239 304 277 256 277 C 208 277 170 239 170 191 C 170 144 208 105 256 105 C 256 105 256 105 256 105 M 256 104 C 208 104 169 143 169 191 C 169 239 208 278 256 278 C 304 278 343 239 343 191 C 343 143 304 104 256 104 C 256 104 256 104 256 104 M 256 89 C 313 89 358 135 358 191 C 358 248 313 294 256 294 C 199 294 154 248 154 191 C 154 135 199 89 256 89 C 256 89 256 89 256 89 M 256 88 C 199 88 153 134 153 191 C 153 248 199 295 256 295 C 313 295 359 248 359 191 C 359 134 313 88 256 88 C 256 88 256 88 256 88" stroke-linecap="round" />
</g>
</g>
</g>
</svg>