<?xml version="1.0" encoding="iso-8859-1"?>
<!-- Generator: Adobe Illustrator 19.0.0, SVG Export Plug-In . SVG Version: 6.00 Build 0)  -->
<svg version="1.1" id="Layer_1" xmlns="http://www.w3.org/2000/svg" xmlns:xlink="http://www.w3.org/1999/xlink" x="0px" y="0px"
	 viewBox="0 0 512 512" style="enable-background:new 0 0 512 512;" xml:space="preserve">
<path style="fill:#E21B1B;" d="M256,0C114.616,0,0,114.616,0,256s114.616,256,256,256s256-114.616,256-256S397.384,0,256,0z"/>
<g>
	<circle style="fill:#FFFFFF;" cx="204.992" cy="106.16" r="29.088"/>
	<path style="fill:#FFFFFF;" d="M237.472,146.872h-64.96c-22.936,0.024-41.528,18.616-41.552,41.552v81.464
		c-0.192,8.344,6.416,15.264,14.76,15.456s15.264-6.416,15.456-14.76c0.008-0.232,0.008-0.464,0-0.696V196.8h9.072v223.024
		c-0.192,8.344,6.416,15.264,14.76,15.456s15.264-6.416,15.456-14.76c0.008-0.232,0.008-0.464,0-0.696V295.912h9.056v123.912
		c0.192,8.344,7.112,14.952,15.456,14.76c8.072-0.184,14.576-6.688,14.76-14.76V196.8h9.064v73.064
		c-0.192,8.344,6.416,15.264,14.76,15.456s15.264-6.416,15.456-14.76c0.008-0.232,0.008-0.464,0-0.696v-81.44
		C278.992,165.488,260.408,146.904,237.472,146.872z"/>
	<rect x="315.04" y="149.024" style="fill:#FFFFFF;" width="82" height="16"/>
	<rect x="348.032" y="116.024" style="fill:#FFFFFF;" width="16" height="82"/>
</g>
<g>
</g>
<g>
</g>
<g>
</g>
<g>
</g>
<g>
</g>
<g>
</g>
<g>
</g>
<g>
</g>
<g>
</g>
<g>
</g>
<g>
</g>
<g>
</g>
<g>
</g>
<g>
</g>
<g>
</g>
</svg>
